<svg width="1280" height="16" viewBox="0 0 1280 16" fill="none" xmlns="http://www.w3.org/2000/svg">
<rect x="0.25" y="0.25" width="15.5" height="15.5" stroke="#F4F1D3" stroke-opacity="0.05" stroke-width="0.5"/>
<rect x="128.25" y="0.25" width="15.5" height="15.5" stroke="#F4F1D3" stroke-opacity="0.05" stroke-width="0.5"/>
<rect x="256.25" y="0.25" width="15.5" height="15.5" stroke="#F4F1D3" stroke-opacity="0.05" stroke-width="0.5"/>
<rect x="384.25" y="0.25" width="15.5" height="15.5" stroke="#F4F1D3" stroke-opacity="0.05" stroke-width="0.5"/>
<rect x="512.25" y="0.25" width="15.5" height="15.5" stroke="#F4F1D3" stroke-opacity="0.05" stroke-width="0.5"/>
<rect x="32.25" y="0.25" width="15.5" height="15.5" stroke="#F4F1D3" stroke-opacity="0.05" stroke-width="0.5"/>
<rect x="160.25" y="0.25" width="15.5" height="15.5" stroke="#F4F1D3" stroke-opacity="0.05" stroke-width="0.5"/>
<rect x="144.25" y="0.25" width="15.5" height="15.5" stroke="#F4F1D3" stroke-opacity="0.05" stroke-width="0.5"/>
<rect x="288.25" y="0.25" width="15.5" height="15.5" stroke="#F4F1D3" stroke-opacity="0.05" stroke-width="0.5"/>
<rect x="416.25" y="0.25" width="15.5" height="15.5" stroke="#F4F1D3" stroke-opacity="0.05" stroke-width="0.5"/>
<rect x="544.25" y="0.25" width="15.5" height="15.5" stroke="#F4F1D3" stroke-opacity="0.05" stroke-width="0.5"/>
<rect x="64.25" y="0.25" width="15.5" height="15.5" stroke="#F4F1D3" stroke-opacity="0.05" stroke-width="0.5"/>
<rect x="192.25" y="0.25" width="15.5" height="15.5" stroke="#F4F1D3" stroke-opacity="0.05" stroke-width="0.5"/>
<rect x="320.25" y="0.25" width="15.5" height="15.5" stroke="#F4F1D3" stroke-opacity="0.05" stroke-width="0.5"/>
<rect x="448.25" y="0.25" width="15.5" height="15.5" stroke="#F4F1D3" stroke-opacity="0.05" stroke-width="0.5"/>
<rect x="576.25" y="0.25" width="15.5" height="15.5" stroke="#F4F1D3" stroke-opacity="0.05" stroke-width="0.5"/>
<rect x="96.25" y="0.25" width="15.5" height="15.5" stroke="#F4F1D3" stroke-opacity="0.05" stroke-width="0.5"/>
<rect x="224.25" y="0.25" width="15.5" height="15.5" stroke="#F4F1D3" stroke-opacity="0.05" stroke-width="0.5"/>
<rect x="352.25" y="0.25" width="15.5" height="15.5" stroke="#F4F1D3" stroke-opacity="0.05" stroke-width="0.5"/>
<rect x="480.25" y="0.25" width="15.5" height="15.5" stroke="#F4F1D3" stroke-opacity="0.05" stroke-width="0.5"/>
<rect x="608.25" y="0.25" width="15.5" height="15.5" stroke="#F4F1D3" stroke-opacity="0.05" stroke-width="0.5"/>
<rect x="16.25" y="0.25" width="15.5" height="15.5" stroke="#F4F1D3" stroke-opacity="0.05" stroke-width="0.5"/>
<rect x="272.25" y="0.25" width="15.5" height="15.5" stroke="#F4F1D3" stroke-opacity="0.05" stroke-width="0.5"/>
<rect x="400.25" y="0.25" width="15.5" height="15.5" stroke="#F4F1D3" stroke-opacity="0.05" stroke-width="0.5"/>
<rect x="528.25" y="0.25" width="15.5" height="15.5" stroke="#F4F1D3" stroke-opacity="0.05" stroke-width="0.5"/>
<rect x="48.25" y="0.25" width="15.5" height="15.5" stroke="#F4F1D3" stroke-opacity="0.05" stroke-width="0.5"/>
<rect x="176.25" y="0.25" width="15.5" height="15.5" stroke="#F4F1D3" stroke-opacity="0.05" stroke-width="0.5"/>
<rect x="304.25" y="0.25" width="15.5" height="15.5" stroke="#F4F1D3" stroke-opacity="0.05" stroke-width="0.5"/>
<rect x="432.25" y="0.25" width="15.5" height="15.5" stroke="#F4F1D3" stroke-opacity="0.05" stroke-width="0.5"/>
<rect x="560.25" y="0.25" width="15.5" height="15.5" stroke="#F4F1D3" stroke-opacity="0.05" stroke-width="0.5"/>
<rect x="80.25" y="0.25" width="15.5" height="15.5" stroke="#F4F1D3" stroke-opacity="0.05" stroke-width="0.5"/>
<rect x="208.25" y="0.25" width="15.5" height="15.5" stroke="#F4F1D3" stroke-opacity="0.05" stroke-width="0.5"/>
<rect x="336.25" y="0.25" width="15.5" height="15.5" stroke="#F4F1D3" stroke-opacity="0.05" stroke-width="0.5"/>
<rect x="464.25" y="0.25" width="15.5" height="15.5" stroke="#F4F1D3" stroke-opacity="0.05" stroke-width="0.5"/>
<rect x="592.25" y="0.25" width="15.5" height="15.5" stroke="#F4F1D3" stroke-opacity="0.05" stroke-width="0.5"/>
<rect x="112.25" y="0.25" width="15.5" height="15.5" stroke="#F4F1D3" stroke-opacity="0.05" stroke-width="0.5"/>
<rect x="240.25" y="0.25" width="15.5" height="15.5" stroke="#F4F1D3" stroke-opacity="0.05" stroke-width="0.5"/>
<rect x="368.25" y="0.25" width="15.5" height="15.5" stroke="#F4F1D3" stroke-opacity="0.05" stroke-width="0.5"/>
<rect x="496.25" y="0.25" width="15.5" height="15.5" stroke="#F4F1D3" stroke-opacity="0.05" stroke-width="0.5"/>
<rect x="624.25" y="0.25" width="15.5" height="15.5" stroke="#F4F1D3" stroke-opacity="0.05" stroke-width="0.5"/>
<rect x="640.25" y="0.25" width="15.5" height="15.5" stroke="#F4F1D3" stroke-opacity="0.05" stroke-width="0.5"/>
<rect x="768.25" y="0.25" width="15.5" height="15.5" stroke="#F4F1D3" stroke-opacity="0.05" stroke-width="0.5"/>
<rect x="896.25" y="0.25" width="15.5" height="15.5" stroke="#F4F1D3" stroke-opacity="0.05" stroke-width="0.5"/>
<rect x="672.25" y="0.25" width="15.5" height="15.5" stroke="#F4F1D3" stroke-opacity="0.05" stroke-width="0.5"/>
<rect x="800.25" y="0.25" width="15.5" height="15.5" stroke="#F4F1D3" stroke-opacity="0.05" stroke-width="0.5"/>
<rect x="704.25" y="0.25" width="15.5" height="15.5" stroke="#F4F1D3" stroke-opacity="0.05" stroke-width="0.5"/>
<rect x="832.25" y="0.25" width="15.5" height="15.5" stroke="#F4F1D3" stroke-opacity="0.05" stroke-width="0.5"/>
<rect x="736.25" y="0.25" width="15.5" height="15.5" stroke="#F4F1D3" stroke-opacity="0.05" stroke-width="0.5"/>
<rect x="864.25" y="0.25" width="15.5" height="15.5" stroke="#F4F1D3" stroke-opacity="0.05" stroke-width="0.5"/>
<rect x="656.25" y="0.25" width="15.5" height="15.5" stroke="#F4F1D3" stroke-opacity="0.05" stroke-width="0.5"/>
<rect x="784.25" y="0.25" width="15.5" height="15.5" stroke="#F4F1D3" stroke-opacity="0.05" stroke-width="0.5"/>
<rect x="912.25" y="0.25" width="15.5" height="15.5" stroke="#F4F1D3" stroke-opacity="0.05" stroke-width="0.5"/>
<rect x="688.25" y="0.25" width="15.5" height="15.5" stroke="#F4F1D3" stroke-opacity="0.05" stroke-width="0.5"/>
<rect x="816.25" y="0.25" width="15.5" height="15.5" stroke="#F4F1D3" stroke-opacity="0.05" stroke-width="0.5"/>
<rect x="720.25" y="0.25" width="15.5" height="15.5" stroke="#F4F1D3" stroke-opacity="0.05" stroke-width="0.5"/>
<rect x="848.25" y="0.25" width="15.5" height="15.5" stroke="#F4F1D3" stroke-opacity="0.05" stroke-width="0.5"/>
<rect x="752.25" y="0.25" width="15.5" height="15.5" stroke="#F4F1D3" stroke-opacity="0.05" stroke-width="0.5"/>
<rect x="880.25" y="0.25" width="15.5" height="15.5" stroke="#F4F1D3" stroke-opacity="0.05" stroke-width="0.5"/>
<rect x="928.25" y="0.25" width="15.5" height="15.5" stroke="#F4F1D3" stroke-opacity="0.05" stroke-width="0.5"/>
<rect x="1056.25" y="0.25" width="15.5" height="15.5" stroke="#F4F1D3" stroke-opacity="0.05" stroke-width="0.5"/>
<rect x="1216.25" y="0.25" width="15.5" height="15.5" stroke="#F4F1D3" stroke-opacity="0.05" stroke-width="0.5"/>
<rect x="960.25" y="0.25" width="15.5" height="15.5" stroke="#F4F1D3" stroke-opacity="0.05" stroke-width="0.5"/>
<rect x="1120.25" y="0.25" width="15.5" height="15.5" stroke="#F4F1D3" stroke-opacity="0.05" stroke-width="0.5"/>
<rect x="1088.25" y="0.25" width="15.5" height="15.5" stroke="#F4F1D3" stroke-opacity="0.05" stroke-width="0.5"/>
<rect x="1248.25" y="0.25" width="15.5" height="15.5" stroke="#F4F1D3" stroke-opacity="0.05" stroke-width="0.5"/>
<rect x="1264.25" y="0.25" width="15.5" height="15.5" stroke="#F4F1D3" stroke-opacity="0.05" stroke-width="0.5"/>
<rect x="992.25" y="0.25" width="15.5" height="15.5" stroke="#F4F1D3" stroke-opacity="0.05" stroke-width="0.5"/>
<rect x="1152.25" y="0.25" width="15.5" height="15.5" stroke="#F4F1D3" stroke-opacity="0.05" stroke-width="0.5"/>
<rect x="1024.25" y="0.25" width="15.5" height="15.5" stroke="#F4F1D3" stroke-opacity="0.05" stroke-width="0.5"/>
<rect x="1184.25" y="0.25" width="15.5" height="15.5" stroke="#F4F1D3" stroke-opacity="0.05" stroke-width="0.5"/>
<rect x="944.25" y="0.25" width="15.5" height="15.5" stroke="#F4F1D3" stroke-opacity="0.05" stroke-width="0.5"/>
<rect x="1104.25" y="0.25" width="15.5" height="15.5" stroke="#F4F1D3" stroke-opacity="0.05" stroke-width="0.5"/>
<rect x="1072.25" y="0.25" width="15.5" height="15.5" stroke="#F4F1D3" stroke-opacity="0.05" stroke-width="0.5"/>
<rect x="1232.25" y="0.25" width="15.5" height="15.5" stroke="#F4F1D3" stroke-opacity="0.05" stroke-width="0.5"/>
<rect x="976.25" y="0.25" width="15.5" height="15.5" stroke="#F4F1D3" stroke-opacity="0.05" stroke-width="0.5"/>
<rect x="1136.25" y="0.25" width="15.5" height="15.5" stroke="#F4F1D3" stroke-opacity="0.05" stroke-width="0.5"/>
<rect x="1008.25" y="0.25" width="15.5" height="15.5" stroke="#F4F1D3" stroke-opacity="0.05" stroke-width="0.5"/>
<rect x="1168.25" y="0.25" width="15.5" height="15.5" stroke="#F4F1D3" stroke-opacity="0.05" stroke-width="0.5"/>
<rect x="1040.25" y="0.25" width="15.5" height="15.5" stroke="#F4F1D3" stroke-opacity="0.05" stroke-width="0.5"/>
<rect x="1200.25" y="0.25" width="15.5" height="15.5" stroke="#F4F1D3" stroke-opacity="0.05" stroke-width="0.5"/>
</svg>
