<?xml version="1.0" standalone="no"?>
<!DOCTYPE svg PUBLIC "-//W3C//DTD SVG 20010904//EN"
 "http://www.w3.org/TR/2001/REC-SVG-20010904/DTD/svg10.dtd">
<svg version="1.0" xmlns="http://www.w3.org/2000/svg"
 width="1024.000000pt" height="1024.000000pt" viewBox="0 0 1024.000000 1024.000000"
 preserveAspectRatio="xMidYMid meet">
<metadata>
Created by potrace 1.14, written by Peter Selinger 2001-2017
</metadata>
<g transform="translate(0.000000,1024.000000) scale(0.100000,-0.100000)"
fill="#000000" stroke="none">
<path d="M2699 9596 c-2 -2 -69 -7 -149 -10 -80 -4 -163 -8 -185 -10 -187 -18
-262 -29 -383 -57 -184 -42 -331 -105 -499 -214 -393 -255 -689 -667 -769
-1070 -16 -82 -30 -173 -39 -260 -4 -33 -8 -76 -10 -95 -17 -144 -20 -617 -20
-2770 0 -2157 4 -2652 20 -2750 2 -14 6 -52 9 -85 30 -322 107 -555 262 -793
262 -405 655 -682 1090 -770 97 -20 132 -25 244 -38 30 -3 71 -7 90 -10 139
-16 597 -19 2750 -19 2205 0 2626 3 2785 21 71 7 256 33 280 38 11 2 49 10 85
16 36 7 71 17 78 23 6 5 12 7 12 3 0 -3 15 0 33 7 17 8 34 14 37 15 3 0 18 5
33 11 16 6 30 11 32 11 24 0 287 145 293 162 2 4 8 8 14 8 17 0 168 122 254
206 288 279 463 627 508 1009 4 28 9 68 11 90 27 211 30 479 30 2860 0 2361
-3 2618 -29 2850 -13 109 -18 142 -26 185 -6 25 -12 57 -15 73 -11 60 -16 79
-44 164 -147 449 -553 875 -1007 1056 -112 45 -280 86 -419 102 -22 3 -51 7
-65 10 -14 2 -63 7 -110 11 -47 4 -107 9 -135 11 -58 6 -5040 14 -5046 9z
m2406 -2535 c7 -1 10 -649 10 -1923 l-1 -1923 -119 0 -120 0 0 1920 c-1 1056
3 1922 7 1926 6 4 185 4 223 0z m-1104 -503 c2 -159 0 -240 -6 -246 -3 -3
-346 -6 -763 -6 l-757 -1 -3 -502 -2 -503 700 0 c660 0 700 -1 701 -17 3 -64
0 -283 -4 -290 -3 -4 -318 -8 -701 -7 l-696 0 0 -678 0 -678 -180 0 -180 0 0
1495 0 1495 945 0 945 0 1 -62z"/>
</g>
</svg>
