<svg width="126" height="24" viewBox="0 0 126 24" fill="none" xmlns="http://www.w3.org/2000/svg">
<path d="M1.76813 18V10.128H9.90413V8.88H1.76813V2.496H10.6001V1.248H0.328125V18H1.76813Z"/>
<path d="M25.4228 18V16.8H23.5747V9.456C23.5747 6.864 21.8468 5.328 19.0628 5.328C16.6628 5.328 15.1507 6.456 14.5027 7.872L15.4388 8.544C16.1108 7.2 17.2867 6.504 18.9907 6.504C21.0067 6.504 22.2067 7.536 22.2067 9.6V11.112H19.1828C15.4868 11.112 14.0948 12.48 14.0948 14.664C14.0948 16.944 15.6788 18.288 18.2708 18.288C20.4068 18.288 21.6067 17.352 22.1587 16.056H22.2788V16.488C22.3508 17.4 22.7827 18 23.8867 18H25.4228ZM18.4868 17.136C16.7108 17.136 15.5348 16.368 15.5348 14.952V14.328C15.5348 12.984 16.6148 12.144 19.1828 12.144H22.2067V14.424C22.2067 16.08 20.5748 17.136 18.4868 17.136Z"/>
<path d="M28.6534 18H38.9494V16.824H33.9094V10.632C33.9094 8.4 35.3974 6.96 37.6294 6.96H40.1734V5.616H38.0374C35.5894 5.616 34.5094 6.936 34.0054 8.448H33.9094V5.616H28.6534V6.792H32.5414V16.824H28.6534V18Z"/>
<path d="M51.636 18H53.004V0.239999H51.636V7.584H51.564C50.868 6.24 49.596 5.328 47.724 5.328C44.652 5.328 42.804 7.656 42.804 11.808C42.804 15.96 44.652 18.288 47.724 18.288C49.596 18.288 50.868 17.376 51.564 16.032H51.636V18ZM48.18 17.064C45.684 17.064 44.268 15.36 44.268 12.672V10.944C44.268 8.256 45.684 6.552 48.18 6.552C50.028 6.552 51.636 7.608 51.636 9.36V14.256C51.636 16.008 50.028 17.064 48.18 17.064Z" />
<path d="M63.5306 2.304C64.3946 2.304 64.7306 1.896 64.7306 1.344V1.032C64.7306 0.479999 64.3946 0.0719986 63.5306 0.0719986C62.6666 0.0719986 62.3306 0.479999 62.3306 1.032V1.344C62.3306 1.896 62.6666 2.304 63.5306 2.304ZM58.2026 18H68.5706V16.824H64.2266V5.616H58.2026V6.792H62.8586V16.824H58.2026V18Z" />
<path d="M83.2492 19.464C83.2492 17.544 81.9532 16.32 78.9532 16.32H76.0012C74.6332 16.32 73.9852 15.96 73.9852 15.24C73.9852 14.376 74.8973 13.872 75.9053 13.632C76.3373 13.728 76.7212 13.752 77.1532 13.752C79.8892 13.752 81.7132 12.048 81.7132 9.552C81.7132 8.28 81.2572 7.224 80.4652 6.504V5.376H83.2972V4.176H80.8732C80.0332 4.176 79.6973 4.68 79.6973 5.448V5.952C79.0013 5.544 78.1372 5.328 77.1532 5.328C74.3932 5.328 72.6172 7.032 72.6172 9.552C72.6172 11.328 73.4812 12.672 74.9452 13.296V13.392C73.7452 13.704 72.7852 14.328 72.7852 15.528C72.7852 16.344 73.1693 16.896 73.9613 17.208V17.4C72.5933 17.808 71.7772 18.6 71.7772 19.992C71.7772 21.936 73.3612 23.088 77.2012 23.088C81.1372 23.088 83.2492 21.936 83.2492 19.464ZM81.9532 19.512C81.9532 21.168 80.4172 21.984 77.9692 21.984H76.3612C74.2012 21.984 73.1212 21.024 73.1212 19.728C73.1212 18.624 73.7932 17.952 74.8972 17.592H78.9532C81.1852 17.592 81.9532 18.336 81.9532 19.512ZM77.1532 12.672C75.1372 12.672 74.0573 11.52 74.0573 9.936V9.144C74.0573 7.536 75.1132 6.408 77.1532 6.408C79.2172 6.408 80.2732 7.536 80.2732 9.144V9.936C80.2732 11.52 79.2172 12.672 77.1532 12.672Z" />
<path d="M91.5439 18.168C92.5519 18.168 92.9359 17.712 92.9359 17.04V16.704C92.9359 16.056 92.5519 15.576 91.5439 15.576C90.5359 15.576 90.1519 16.056 90.1519 16.704V17.04C90.1519 17.712 90.5359 18.168 91.5439 18.168Z" />
<path d="M106.702 2.304C107.566 2.304 107.902 1.896 107.902 1.344V1.032C107.902 0.479999 107.566 0.0719986 106.702 0.0719986C105.838 0.0719986 105.502 0.479999 105.502 1.032V1.344C105.502 1.896 105.838 2.304 106.702 2.304ZM101.374 18H111.743V16.824H107.398V5.616H101.374V6.792H106.03V16.824H101.374V18Z" />
<path d="M120.325 18.288C123.685 18.288 125.725 15.888 125.725 11.808C125.725 7.728 123.685 5.328 120.325 5.328C116.965 5.328 114.925 7.728 114.925 11.808C114.925 15.888 116.965 18.288 120.325 18.288ZM120.325 17.088C117.901 17.088 116.389 15.504 116.389 12.576V11.04C116.389 8.112 117.901 6.528 120.325 6.528C122.749 6.528 124.261 8.112 124.261 11.04V12.576C124.261 15.504 122.749 17.088 120.325 17.088Z" />
</svg>
