<svg viewBox="0 0 600 192" fill="none" xmlns="http://www.w3.org/2000/svg">
<path fill-rule="evenodd" clip-rule="evenodd" d="M2 0C0.895431 0 0 0.895434 0 2V190C0 191.105 0.895431 192 2 192H142C143.105 192 144 191.105 144 190V24L120 0H2Z" fill="#36363A"/>
<path d="M120 24L144 24L120 -2.09815e-06L120 24Z" fill="#40424A" />
<path d="M29.182 55C32.7275 55 34.9263 52.8125 34.9263 49.1761C34.9263 45.5455 32.7275 43.3636 29.1763 43.3636H24.8809V55H29.182ZM27.6934 52.6023V45.7614H29.0343C31.0343 45.7614 32.1081 46.6705 32.1081 49.1761C32.1081 51.6932 31.0343 52.6023 29.074 52.6023H27.6934Z" fill="#FDBB57"/>
<path d="M40.6422 55.1648C43.3865 55.1648 45.0513 53.3523 45.0513 50.6648C45.0513 47.9716 43.3865 46.1591 40.6422 46.1591C37.8979 46.1591 36.2331 47.9716 36.2331 50.6648C36.2331 53.3523 37.8979 55.1648 40.6422 55.1648ZM40.6593 53.0682C39.6309 53.0682 39.0627 52.0909 39.0627 50.6477C39.0627 49.1989 39.6309 48.2159 40.6593 48.2159C41.6536 48.2159 42.2218 49.1989 42.2218 50.6477C42.2218 52.0909 41.6536 53.0682 40.6593 53.0682Z" fill="#FDBB57"/>
<path d="M50.5485 55.1648C53.003 55.1648 54.5257 53.7386 54.5996 51.5796H52.003C51.9007 52.5057 51.3439 53.0114 50.5826 53.0114C49.6053 53.0114 48.9689 52.1875 48.9689 50.6364C48.9689 49.0966 49.611 48.2727 50.5826 48.2727C51.378 48.2727 51.8951 48.8125 52.003 49.7046H54.5996C54.5371 47.5568 52.9689 46.1591 50.5428 46.1591C47.7985 46.1591 46.1394 47.9886 46.1394 50.6648C46.1394 53.3296 47.7871 55.1648 50.5485 55.1648Z" fill="#FDBB57"/>
<path d="M61.6522 51.233C61.6522 52.25 61.0044 52.8182 60.1806 52.8182C59.3283 52.8182 58.8056 52.2386 58.7999 51.2898V46.2727H56.0215V51.8352C56.0272 53.8068 57.226 55.1136 59.0215 55.1136C60.3283 55.1136 61.2999 54.4432 61.6863 53.375H61.7772V55H64.4249V46.2727H61.6522V51.233Z" fill="#FDBB57"/>
<path d="M66.1934 55H68.9718V49.8352C68.9718 48.9716 69.4775 48.4205 70.2047 48.4205C70.9263 48.4205 71.4036 48.9261 71.4036 49.733V55H74.074V49.7898C74.074 48.9546 74.5343 48.4205 75.3013 48.4205C76.0059 48.4205 76.5059 48.8921 76.5059 49.7614V55H79.2843V49.125C79.2843 47.2784 78.1479 46.1591 76.5002 46.1591C75.2104 46.1591 74.1934 46.8352 73.8695 47.875H73.7786C73.5456 46.8296 72.6081 46.1591 71.3979 46.1591C70.2047 46.1591 69.2956 46.8125 68.932 47.875H68.8354V46.2727H66.1934V55Z" fill="#FDBB57"/>
<path d="M85.0854 55.1648C87.3752 55.1648 88.8809 54.0568 89.199 52.3409L86.6479 52.2671C86.432 52.8466 85.8638 53.1591 85.1365 53.1591C84.0684 53.1591 83.4093 52.4489 83.4093 51.3807V51.3068H89.2274V50.6136C89.2274 47.7386 87.4775 46.1591 85.0002 46.1591C82.3638 46.1591 80.6706 47.9659 80.6706 50.6705C80.6706 53.4659 82.3411 55.1648 85.0854 55.1648ZM83.4093 49.6932C83.449 48.8239 84.1365 48.1648 85.057 48.1648C85.9718 48.1648 86.6309 48.8011 86.6422 49.6932H83.4093Z" fill="#FDBB57"/>
<path d="M93.4249 50.0227C93.4306 49.0284 94.0101 48.4375 94.8908 48.4375C95.7715 48.4375 96.2942 49.0171 96.2885 49.983V55H99.0669V49.4375C99.0726 47.4716 97.8738 46.1591 96.0385 46.1591C94.7488 46.1591 93.7715 46.8125 93.3851 47.875H93.2885V46.2727H90.6465V55H93.4249V50.0227Z" fill="#FDBB57"/>
<path d="M105.713 46.2727H104.139V44.1818H101.361V46.2727H100.208V48.3182H101.361V52.5625C101.344 54.3296 102.492 55.2159 104.452 55.125C105.122 55.0909 105.605 54.9546 105.872 54.875L105.452 52.8693C105.333 52.8977 105.054 52.9546 104.844 52.9546C104.395 52.9546 104.139 52.7727 104.139 52.2557V48.3182H105.713V46.2727Z" fill="#FDBB57"/>
<path d="M113.085 55L113.852 52.5568H117.869L118.637 55H121.659L117.733 43.3636H113.989L110.063 55H113.085ZM114.523 50.4205L115.813 46.2955H115.904L117.199 50.4205H114.523Z" fill="#FDBB57"/>
<rect x="24" y="77" width="96" height="2" fill="#595B4F" />
<rect x="24" y="83" width="96" height="2" fill="#595B4F"/>
<rect x="24" y="89" width="81.7778" height="2" fill="#595B4F"/>
<rect x="24" y="107" width="96" height="2" fill="#595B4F"/>
<rect x="24" y="113" width="96" height="2" fill="#595B4F"/>
<rect x="24" y="119" width="67.5556" height="2" fill="#595B4F"/>
<path fill-rule="evenodd" clip-rule="evenodd" d="M230 0C228.895 0 228 0.895434 228 2V190C228 191.105 228.895 192 230 192H370C371.105 192 372 191.105 372 190V24L348 0H230Z" fill="#36363A"/>
<path d="M348 24L372 24L348 -2.09815e-06L348 24Z" fill="#40424A"/>
<path d="M257.182 55C260.727 55 262.926 52.8125 262.926 49.1761C262.926 45.5455 260.727 43.3636 257.176 43.3636H252.881V55H257.182ZM255.693 52.6023V45.7614H257.034C259.034 45.7614 260.108 46.6705 260.108 49.1761C260.108 51.6932 259.034 52.6023 257.074 52.6023H255.693Z" fill="#F89FE5"/>
<path d="M268.642 55.1648C271.387 55.1648 273.051 53.3523 273.051 50.6648C273.051 47.9716 271.387 46.1591 268.642 46.1591C265.898 46.1591 264.233 47.9716 264.233 50.6648C264.233 53.3523 265.898 55.1648 268.642 55.1648ZM268.659 53.0682C267.631 53.0682 267.063 52.0909 267.063 50.6477C267.063 49.1989 267.631 48.2159 268.659 48.2159C269.654 48.2159 270.222 49.1989 270.222 50.6477C270.222 52.0909 269.654 53.0682 268.659 53.0682Z" fill="#F89FE5"/>
<path d="M278.548 55.1648C281.003 55.1648 282.526 53.7386 282.6 51.5796H280.003C279.901 52.5057 279.344 53.0114 278.583 53.0114C277.605 53.0114 276.969 52.1875 276.969 50.6364C276.969 49.0966 277.611 48.2727 278.583 48.2727C279.378 48.2727 279.895 48.8125 280.003 49.7046H282.6C282.537 47.5568 280.969 46.1591 278.543 46.1591C275.798 46.1591 274.139 47.9886 274.139 50.6648C274.139 53.3296 275.787 55.1648 278.548 55.1648Z" fill="#F89FE5"/>
<path d="M289.652 51.233C289.652 52.25 289.004 52.8182 288.181 52.8182C287.328 52.8182 286.806 52.2386 286.8 51.2898V46.2727H284.021V51.8352C284.027 53.8068 285.226 55.1136 287.021 55.1136C288.328 55.1136 289.3 54.4432 289.686 53.375H289.777V55H292.425V46.2727H289.652V51.233Z" fill="#F89FE5"/>
<path d="M294.193 55H296.972V49.8352C296.972 48.9716 297.477 48.4205 298.205 48.4205C298.926 48.4205 299.404 48.9261 299.404 49.733V55H302.074V49.7898C302.074 48.9546 302.534 48.4205 303.301 48.4205C304.006 48.4205 304.506 48.8921 304.506 49.7614V55H307.284V49.125C307.284 47.2784 306.148 46.1591 304.5 46.1591C303.21 46.1591 302.193 46.8352 301.869 47.875H301.779C301.546 46.8296 300.608 46.1591 299.398 46.1591C298.205 46.1591 297.296 46.8125 296.932 47.875H296.835V46.2727H294.193V55Z" fill="#F89FE5"/>
<path d="M313.085 55.1648C315.375 55.1648 316.881 54.0568 317.199 52.3409L314.648 52.2671C314.432 52.8466 313.864 53.1591 313.137 53.1591C312.068 53.1591 311.409 52.4489 311.409 51.3807V51.3068H317.227V50.6136C317.227 47.7386 315.477 46.1591 313 46.1591C310.364 46.1591 308.671 47.9659 308.671 50.6705C308.671 53.4659 310.341 55.1648 313.085 55.1648ZM311.409 49.6932C311.449 48.8239 312.137 48.1648 313.057 48.1648C313.972 48.1648 314.631 48.8011 314.642 49.6932H311.409Z" fill="#F89FE5"/>
<path d="M321.425 50.0227C321.431 49.0284 322.01 48.4375 322.891 48.4375C323.771 48.4375 324.294 49.0171 324.289 49.983V55H327.067V49.4375C327.073 47.4716 325.874 46.1591 324.039 46.1591C322.749 46.1591 321.771 46.8125 321.385 47.875H321.289V46.2727H318.646V55H321.425V50.0227Z" fill="#F89FE5"/>
<path d="M333.713 46.2727H332.139V44.1818H329.361V46.2727H328.208V48.3182H329.361V52.5625C329.344 54.3296 330.492 55.2159 332.452 55.125C333.122 55.0909 333.605 54.9546 333.872 54.875L333.452 52.8693C333.333 52.8977 333.054 52.9546 332.844 52.9546C332.395 52.9546 332.139 52.7727 332.139 52.2557V48.3182H333.713V46.2727Z" fill="#F89FE5"/>
<path d="M338.568 55H343.79C346.364 55 347.841 53.625 347.841 51.7443C347.841 50.0625 346.619 49.0057 345.21 48.9432V48.8296C346.489 48.5625 347.387 47.6364 347.387 46.3068C347.387 44.5511 346.034 43.3636 343.421 43.3636H338.568V55ZM341.381 52.733V49.9602H343.171C344.244 49.9602 344.904 50.5284 344.904 51.4205C344.904 52.2443 344.335 52.733 343.119 52.733H341.381ZM341.381 48.1477V45.5966H342.983C343.921 45.5966 344.517 46.0796 344.517 46.8523C344.517 47.6705 343.858 48.1477 342.938 48.1477H341.381Z" fill="#F89FE5"/>
<rect x="252" y="77" width="96" height="2" fill="#5C5D58"/>
<rect x="252" y="83" width="96" height="2" fill="#5C5D58"/>
<rect x="252" y="89" width="96" height="2" fill="#5C5D58"/>
<rect x="252" y="95" width="96" height="2" fill="#5C5D58"/>
<rect x="252" y="101" width="81.7778" height="2" fill="#5C5D58"/>
<rect x="252" y="156" width="96" height="2" fill="#5C5D58"/>
<rect x="252" y="162" width="96" height="2" fill="#5C5D58"/>
<rect x="252" y="168" width="96" height="2" fill="#5C5D58"/>
<rect x="252" y="174" width="67.5556" height="2" fill="#5C5D58"/>
<path fill-rule="evenodd" clip-rule="evenodd" d="M25 137C24.4477 137 24 137.448 24 138V144C24 144.552 24.4477 145 25 145H31C31.5523 145 32 144.552 32 144V138C32 137.448 31.5523 137 31 137H25ZM108 140H36V142H108V140ZM24 154C24 153.448 24.4477 153 25 153H31C31.5523 153 32 153.448 32 154V160C32 160.552 31.5523 161 31 161H25C24.4477 161 24 160.552 24 160V154ZM86 156H36V158H86V156ZM24 170C24 169.448 24.4477 169 25 169H31C31.5523 169 32 169.448 32 170V176C32 176.552 31.5523 177 31 177H25C24.4477 177 24 176.552 24 176V170ZM98 172H36V174H98V172Z" fill="#FDBB57"/>
<path fill-rule="evenodd" clip-rule="evenodd" d="M253 119C252.448 119 252 119.448 252 120V125C252 125.552 252.448 126 253 126H258C258.552 126 259 125.552 259 125V120C259 119.448 258.552 119 258 119H253ZM325.5 121.625H262.5V123.375H325.5V121.625ZM252 134C252 133.448 252.448 133 253 133H258C258.552 133 259 133.448 259 134V139C259 139.552 258.552 140 258 140H253C252.448 140 252 139.552 252 139V134ZM316.75 135.625H262.5V137.375H316.75V135.625Z" fill="#F89FE5"/>
<path fill-rule="evenodd" clip-rule="evenodd" d="M458 0C456.895 0 456 0.895434 456 2V190C456 191.105 456.895 192 458 192H598C599.105 192 600 191.105 600 190V24L576 0H458Z" fill="#36363A"/>
<path d="M576 24L600 24L576 -2.09815e-06L576 24Z" fill="#40424A"/>
<path d="M480.881 43.3637V55H483.619V47.8125H483.716L486.512 54.9262H488.262L491.057 47.8523H491.154V55H493.892V43.3637H490.409L487.455 50.5682H487.318L484.364 43.3637H480.881Z" fill="#E6F1A2"/>
<path d="M497.345 58.2614C499.345 58.2614 500.34 57.25 500.823 55.8352L504.112 46.2784L501.186 46.2727L499.556 52.5H499.465L497.857 46.2727H494.948L498.05 55.3182L497.942 55.5796C497.641 56.2046 497.073 56.233 496.254 55.9659L495.641 57.983C496.061 58.1477 496.681 58.2614 497.345 58.2614Z" fill="#E6F1A2"/>
<path d="M508.235 45.6477H511.769V55H514.541V45.6477H518.07V43.3637H508.235V45.6477Z" fill="#E6F1A2"/>
<path d="M522.252 55.1648C524.996 55.1648 526.661 53.3523 526.661 50.6648C526.661 47.9716 524.996 46.1591 522.252 46.1591C519.507 46.1591 517.843 47.9716 517.843 50.6648C517.843 53.3523 519.507 55.1648 522.252 55.1648ZM522.269 53.0682C521.24 53.0682 520.672 52.0909 520.672 50.6477C520.672 49.1989 521.24 48.2159 522.269 48.2159C523.263 48.2159 523.831 49.1989 523.831 50.6477C523.831 52.0909 523.263 53.0682 522.269 53.0682Z" fill="#E6F1A2"/>
<path d="M532.385 55C535.931 55 538.129 52.8125 538.129 49.1762C538.129 45.5455 535.931 43.3637 532.379 43.3637H528.084V55H532.385ZM530.896 52.6023V45.7614H532.237C534.237 45.7614 535.311 46.6705 535.311 49.1762C535.311 51.6932 534.237 52.6023 532.277 52.6023H530.896Z" fill="#E6F1A2"/>
<path d="M543.845 55.1648C546.59 55.1648 548.254 53.3523 548.254 50.6648C548.254 47.9716 546.59 46.1591 543.845 46.1591C541.101 46.1591 539.436 47.9716 539.436 50.6648C539.436 53.3523 541.101 55.1648 543.845 55.1648ZM543.862 53.0682C542.834 53.0682 542.266 52.0909 542.266 50.6477C542.266 49.1989 542.834 48.2159 543.862 48.2159C544.857 48.2159 545.425 49.1989 545.425 50.6477C545.425 52.0909 544.857 53.0682 543.862 53.0682Z" fill="#E6F1A2"/>
<path d="M555.894 43.3637H553.115V55H555.894V43.3637Z" fill="#E6F1A2"/>
<path d="M557.662 55H560.441V46.2727H557.662V55ZM559.054 45.2557C559.844 45.2557 560.48 44.6591 560.48 43.9262C560.48 43.1932 559.844 42.6023 559.054 42.6023C558.27 42.6023 557.628 43.1932 557.628 43.9262C557.628 44.6591 558.27 45.2557 559.054 45.2557Z" fill="#E6F1A2"/>
<path d="M569.828 48.9375C569.681 47.2102 568.266 46.1591 565.902 46.1591C563.539 46.1591 562.033 47.1875 562.044 48.9375C562.033 50.2784 562.891 51.1421 564.635 51.4659L566.158 51.7557C566.879 51.8978 567.209 52.125 567.22 52.5114C567.209 52.9489 566.72 53.2387 566.01 53.2387C565.22 53.2387 564.686 52.8978 564.567 52.2614L561.823 52.3296C562.021 54.0568 563.504 55.1648 565.999 55.1648C568.334 55.1648 570.033 54 570.044 52.2046C570.033 50.9318 569.192 50.1762 567.453 49.8409L565.771 49.5227C565.033 49.375 564.794 49.1137 564.8 48.7784C564.794 48.3352 565.311 48.0625 565.953 48.0625C566.686 48.0625 567.198 48.4546 567.277 49.0057L569.828 48.9375Z" fill="#E6F1A2"/>
<path d="M576.338 46.2727H574.764V44.1818H571.986V46.2727H570.833V48.3182H571.986V52.5625C571.969 54.3296 573.117 55.2159 575.077 55.125C575.747 55.0909 576.23 54.9546 576.497 54.875L576.077 52.8693C575.958 52.8978 575.679 52.9546 575.469 52.9546C575.02 52.9546 574.764 52.7728 574.764 52.2557V48.3182H576.338V46.2727Z" fill="#E6F1A2"/>
<path fill-rule="evenodd" clip-rule="evenodd" d="M481 77C480.448 77 480 77.4477 480 78V84C480 84.5523 480.448 85 481 85H487C487.552 85 488 84.5523 488 84V78C488 77.4477 487.552 77 487 77H481ZM564 80H492V82H564V80ZM480 94C480 93.4477 480.448 93 481 93H487C487.552 93 488 93.4477 488 94V100C488 100.552 487.552 101 487 101H481C480.448 101 480 100.552 480 100V94ZM542 96H492V98H542V96ZM480 110C480 109.448 480.448 109 481 109H487C487.552 109 488 109.448 488 110V116C488 116.552 487.552 117 487 117H481C480.448 117 480 116.552 480 116V110ZM554 112H492V114H554V112Z" fill="#FDBB57"/>
<path fill-rule="evenodd" clip-rule="evenodd" d="M482 149C481.448 149 481 149.448 481 150V155C481 155.552 481.448 156 482 156H487C487.552 156 488 155.552 488 155V150C488 149.448 487.552 149 487 149H482ZM554.5 151.625H491.5V153.375H554.5V151.625ZM481 164C481 163.448 481.448 163 482 163H487C487.552 163 488 163.448 488 164V169C488 169.552 487.552 170 487 170H482C481.448 170 481 169.552 481 169V164ZM545.75 165.625H491.5V167.375H545.75V165.625Z" fill="#F89FE5"/>
<path d="M184.728 111.25H185.819V101.909H195.159V100.818H185.819V91.4773H184.728V100.818H175.387V101.909H184.728V111.25Z" fill="#B8C468"/>
<path d="M405.159 106.477H421.386V105.386H405.159V106.477ZM405.159 97.3409H421.386V96.25H405.159V97.3409Z" fill="#B8C468"/>

</svg>
